<svg width="147" height="32" viewBox="0 0 147 32" fill="none" xmlns="http://www.w3.org/2000/svg">
<path d="M13.2986 6.96604C11.9767 6.96604 10.4095 8.23681 9.11685 10.3733C7.76969 12.5859 6.96582 15.3248 6.96582 17.7034C6.96582 21.1857 8.92072 24.6973 13.2986 24.6973C17.6722 24.6973 19.6311 21.1857 19.6311 17.7034C19.6311 15.3248 18.8278 12.5859 17.4871 10.3733C16.183 8.23681 14.6165 6.96604 13.2986 6.96604Z" fill="#E30611"/>
<path d="M47.4943 12.1906H51.9273V23.7475H56.6768V12.1906H61.1096V7.91602H47.4945L47.4943 12.1906Z" fill="#E30611"/>
<path d="M71.2413 12.1906H78.2076V7.91602H71.2418C64.8412 7.91602 61.4241 11.098 61.4241 15.8317C61.4241 20.5653 64.8412 23.7475 71.2418 23.7475H78.2076V19.4729H71.2413C68.2797 19.4729 66.3319 18.4142 66.3319 15.8317C66.3319 13.2493 68.2797 12.1906 71.2413 12.1906Z" fill="#E30611"/>
<path d="M37.8351 7.91602L35.3032 17.3657L32.7712 7.91602H24.3804V23.7475H29.1299V10.8703L32.5803 23.7475H38.0259L41.4786 10.8621V23.7475H46.2281V7.91602H37.8351Z" fill="#E30611"/>
<path d="M89.7934 13.5826C89.7934 12.7291 89.3897 12.0371 88.271 11.7373C89.2975 11.4028 89.6089 10.6878 89.6089 9.92659C89.6089 8.66949 88.7208 7.98904 87.21 7.98904H82.9312V15.9468H87.0947C88.8938 15.9468 89.7934 15.0819 89.7934 13.5826ZM87.4291 13.2942V13.6172C87.4291 14.0785 87.0947 14.3322 86.518 14.3322H85.1802V12.5907H86.518C87.0947 12.5907 87.4291 12.856 87.4291 13.2942ZM87.2446 10.2264V10.4571C87.2446 10.8838 86.9332 11.1145 86.4142 11.1145H85.1802V9.60366H86.4142C86.9332 9.60366 87.2446 9.83432 87.2446 10.2264ZM94.4363 9.66133C95.0014 9.66133 95.1974 9.85739 95.1974 10.2841V10.4802C95.1974 11.9449 91.2993 11.4835 91.2993 14.7935V15.9468H97.5617V13.9862H93.9288C94.1364 12.9136 97.5617 12.9021 97.5617 10.2956C97.5617 8.47343 96.4891 7.81604 94.4363 7.81604C92.5333 7.81604 91.3569 8.47343 91.2877 10.4456H93.652C93.7097 9.85739 93.8596 9.66133 94.4363 9.66133ZM106.264 13.5826C106.264 12.7291 105.86 12.0371 104.742 11.7373C105.768 11.4028 106.08 10.6878 106.08 9.92659C106.08 8.66949 105.191 7.98904 103.681 7.98904H99.4019V15.9468H103.565C105.364 15.9468 106.264 15.0819 106.264 13.5826ZM103.9 13.2942V13.6172C103.9 14.0785 103.565 14.3322 102.989 14.3322H101.651V12.5907H102.989C103.565 12.5907 103.9 12.856 103.9 13.2942ZM103.715 10.2264V10.4571C103.715 10.8838 103.404 11.1145 102.885 11.1145H101.651V9.60366H102.885C103.404 9.60366 103.715 9.83432 103.715 10.2264ZM114.828 16.1198C116.996 16.1198 118.311 15.3125 118.542 13.1674H116.177C116.051 14.0554 115.555 14.2745 114.828 14.2745C113.998 14.2745 113.41 14.0554 113.41 12.6599V11.2529C113.41 9.85739 114.021 9.66133 114.828 9.66133C115.566 9.66133 116.074 9.84586 116.166 10.7454H118.53C118.334 8.57722 116.996 7.81604 114.828 7.81604C112.464 7.81604 111.045 8.81942 111.045 11.9333C111.045 15.1741 112.464 16.1198 114.828 16.1198ZM127.086 10.607C127.086 8.90015 125.967 7.98904 124.087 7.98904H120.155V15.9468H122.461V13.2942H123.557L124.791 15.9468H127.213L125.817 12.9367C126.625 12.5215 127.086 11.7373 127.086 10.607ZM124.722 10.7454C124.722 11.1837 124.456 11.449 123.937 11.449H122.461V9.83432H123.937C124.479 9.83432 124.722 10.0881 124.722 10.5148V10.7454ZM132.69 7.98904H128.942V15.9468H131.075V9.92659L132.286 15.0011H134.743L135.954 9.92659V15.9468H138.26V7.98904H134.801L133.74 12.5446L132.69 7.98904Z" fill="#E30611"/>
</svg>
