<svg width="281" height="20" viewBox="0 0 281 20" fill="none" xmlns="http://www.w3.org/2000/svg">
<path d="M6.27774 0.205307C4.97911 0.205307 3.43905 1.4483 2.16968 3.53573C0.845451 5.6996 0.0571289 8.37668 0.0571289 10.7007C0.0571289 14.1057 1.97763 17.5381 6.27957 17.5381C10.576 17.5381 12.502 14.1057 12.502 10.7007C12.502 8.37486 11.7119 5.69778 10.3949 3.53573C9.11277 1.4483 7.57271 0.205307 6.27774 0.205307Z" fill="#E30611"/>
<path d="M39.8756 5.31379H44.2306V16.6099H48.8965V5.31379H53.2515V1.13528H39.8756V5.31379Z" fill="#E30611"/>
<path d="M63.2051 5.31378H70.0494V1.13528H63.2051C56.9169 1.13528 53.5587 4.2455 53.5587 8.87351C53.5587 13.5015 56.915 16.6117 63.2051 16.6117H70.0494V12.4332H63.2051C60.2951 12.4332 58.3819 11.3977 58.3819 8.87351C58.3819 6.34749 60.2951 5.31378 63.2051 5.31378Z" fill="#E30611"/>
<path d="M30.3847 1.13528L27.8972 10.3713L25.4097 1.13528H17.1661V16.6099H21.8321V4.02165L25.2213 16.6099H30.5731L33.9642 4.01437V16.6099H38.6301V1.13528H30.3847Z" fill="#E30611"/>
<path d="M90.1617 16.6099H85.6038V5.31195H93.2236V6.999H87.6779V9.70156H90.1636C92.7627 9.70156 93.9643 10.9791 93.9643 13.0902C93.9643 15.2687 92.7627 16.6099 90.1617 16.6099ZM89.9313 11.3559H87.6761V14.9083H89.9313C91.1659 14.9083 91.7914 14.4333 91.7914 13.4342V12.8118C91.7914 11.8618 91.1824 11.3559 89.9313 11.3559Z" fill="#E30611"/>
<path d="M95.6746 8.35847H97.6829V10.9282H99.5924C101.617 10.9282 102.636 11.9601 102.636 13.7108C102.636 15.578 101.615 16.6081 99.5924 16.6081H95.6764V8.35847H95.6746ZM99.2449 12.4351H97.681V15.1194H99.2449C100.101 15.1194 100.529 14.7099 100.529 13.9565V13.5143C100.529 12.7954 100.068 12.4351 99.2449 12.4351ZM103.689 16.6099V8.35847H105.698V16.6099H103.689Z" fill="#E30611"/>
<path d="M111.571 9.94725V16.6117H109.562V9.94725H106.881V8.35847H114.238V9.94725H111.571Z" fill="#E30611"/>
<path d="M115.421 8.35847H117.429V10.9282H119.339C121.364 10.9282 122.382 11.9601 122.382 13.7108C122.382 15.578 121.362 16.6081 119.339 16.6081H115.423V8.35847H115.421ZM118.991 12.4351H117.427V15.1194H118.991C119.847 15.1194 120.275 14.7099 120.275 13.9565V13.5143C120.275 12.7954 119.814 12.4351 118.991 12.4351Z" fill="#E30611"/>
<path d="M126.479 14.8428H126.809C127.714 14.8428 127.977 14.335 127.977 12.2385V8.35847H134.428V16.6099H132.404V9.94543H129.803V12.3204C129.803 15.6599 129.161 16.6099 126.874 16.6099H126.479V14.8428Z" fill="#E30611"/>
<path d="M137.242 18.3297C138.131 18.3297 138.41 18.1659 138.674 17.4453L138.855 16.9539L135.597 8.35847H137.721L139.877 14.1385L141.968 8.35847H143.877L140.472 17.6909C139.83 19.4599 139.27 19.8857 137.69 19.8857H136.521V18.3297H137.242Z" fill="#E30611"/>
<path d="M151.986 16.6099H149.977V13.4506C149.483 13.5325 148.792 13.5816 148.298 13.5816C145.747 13.5816 144.827 12.6807 144.827 10.586V8.35847H146.835V10.5205C146.835 11.6671 147.296 12.011 148.498 12.011C148.876 12.011 149.485 11.9946 149.979 11.88V8.36029H151.987V16.6099H151.986Z" fill="#E30611"/>
<path d="M165.396 16.6099H154.025V8.35847H156.033V15.023H158.698V8.35847H160.707V15.023H163.373V8.35847H165.398V16.6099H165.396Z" fill="#E30611"/>
<path d="M172.8 13.9419H174.808C174.545 15.9238 173.146 16.7901 170.975 16.7901C168.228 16.7901 166.976 15.2504 166.976 12.5006C166.976 9.71794 168.26 8.1783 170.975 8.1783C173.444 8.1783 174.775 9.39036 174.775 12.0256V12.4514H169.016V13.0738C169.016 14.5152 169.707 15.3178 170.975 15.3178C171.911 15.3178 172.668 15.0066 172.8 13.9419ZM169.065 11.1757H172.685C172.553 10.1602 172.059 9.65242 170.956 9.65242C169.806 9.65242 169.213 10.1766 169.065 11.1757Z" fill="#E30611"/>
<path d="M180.173 16.6099V8.35847H182.181V11.6325H183.054L185.408 8.35847H187.614L184.768 12.3204L187.976 16.6099H185.538L183.004 13.2213H182.181V16.6099H180.173Z" fill="#E30611"/>
<path d="M194.143 15.5635C193.551 16.3824 192.645 16.7919 191.429 16.7919C189.52 16.7919 188.581 15.76 188.581 14.3678C188.581 12.6807 189.635 11.9601 191.888 11.7471L194.045 11.5506V11.1739C194.045 10.1256 193.501 9.6506 192.497 9.6506C191.543 9.6506 190.983 10.0273 190.901 10.9118H188.859C188.975 9.14285 190.193 8.1783 192.495 8.1783C194.784 8.1783 196.066 9.09553 196.066 11.2066V16.6099H194.14V15.5635H194.143ZM192.036 15.3833C193.222 15.3833 194.045 14.7445 194.045 13.4997V12.779L192.069 12.9756C191.098 13.0738 190.621 13.3359 190.621 14.073V14.4169C190.621 15.0557 191.131 15.3833 192.036 15.3833Z" fill="#E30611"/>
<path d="M202.255 16.6099V13.2213H201.449L199.276 16.6099H197.021L199.786 12.3859L197.251 8.35847H199.391L201.432 11.6325H202.255V8.35847H204.28V11.6325H205.087L207.128 8.35847H209.218L206.733 12.3204L209.515 16.6099H207.243L205.07 13.2213H204.28V16.6099H202.255Z" fill="#E30611"/>
<path d="M209.544 15.023H210.515C211.058 14.0402 211.239 12.779 211.239 10.8645V8.35847H217.888V15.023H219.139V18.903H217.295V16.6099H211.388V18.903H209.544V15.023ZM213.067 9.94725V10.8809C213.067 12.7808 212.935 14.0402 212.425 15.023H215.88V9.94725H213.067Z" fill="#E30611"/>
<path d="M220.273 8.35847H222.281V10.9282H224.191C226.216 10.9282 227.235 11.9601 227.235 13.7108C227.235 15.578 226.214 16.6081 224.191 16.6081H220.275V8.35847H220.273ZM223.844 12.4351H222.28V15.1194H223.844C224.7 15.1194 225.128 14.7099 225.128 13.9565V13.5143C225.128 12.7954 224.667 12.4351 223.844 12.4351ZM228.288 16.6099V8.35847H230.296V16.6099H228.288Z" fill="#E30611"/>
<path d="M237.995 16.6099V10.6006L234.688 16.6099H232.334V8.35847H234.342V14.3678L237.666 8.35847H240.003V16.6099H237.995ZM239.032 4.49481C239.032 6.19824 238.127 7.09728 236.17 7.09728C234.211 7.09728 233.307 6.19642 233.307 4.49481H234.97C234.97 5.54308 235.365 5.87066 236.171 5.87066C236.994 5.87066 237.39 5.54308 237.39 4.49481H239.032Z" fill="#E30611"/>
<path d="M244.792 15.023H245.763C246.306 14.0402 246.487 12.779 246.487 10.8645V8.35847H253.136V15.023H254.387V18.903H252.543V16.6099H246.635V18.903H244.792V15.023ZM248.313 9.94725V10.8809C248.313 12.7808 248.181 14.0402 247.671 15.023H251.126V9.94725H248.313Z" fill="#E30611"/>
<path d="M260.902 13.9419H262.91C262.647 15.9238 261.248 16.7901 259.077 16.7901C256.329 16.7901 255.078 15.2504 255.078 12.5006C255.078 9.71794 256.362 8.1783 259.077 8.1783C261.546 8.1783 262.877 9.39036 262.877 12.0256V12.4514H257.118V13.0738C257.118 14.5152 257.809 15.3178 259.077 15.3178C260.013 15.3178 260.77 15.0066 260.902 13.9419ZM257.165 11.1757H260.785C260.653 10.1602 260.159 9.65242 259.057 9.65242C257.906 9.65242 257.313 10.1766 257.165 11.1757Z" fill="#E30611"/>
<path d="M269.936 16.6099V13.1885H266.497V16.6099H264.489V8.35847H266.497V11.5997H269.936V8.35847H271.944V16.6099H269.936Z" fill="#E30611"/>
<path d="M273.983 8.35847H275.992V10.9282H277.901C279.926 10.9282 280.945 11.9601 280.945 13.7108C280.945 15.578 279.924 16.6081 277.901 16.6081H273.985V8.35847H273.983ZM277.554 12.4351H275.99V15.1194H277.554C278.41 15.1194 278.838 14.7099 278.838 13.9565V13.5143C278.838 12.7954 278.377 12.4351 277.554 12.4351Z" fill="#E30611"/>
</svg>
