<svg width="331" height="321" viewBox="0 0 331 321" fill="none" xmlns="http://www.w3.org/2000/svg">
<path d="M168.001 49.0001C151.302 49.0001 131.503 65.0539 115.174 92.0437C98.1553 119.996 88 154.597 88 184.646C88 228.637 112.696 273 168.001 273C223.254 273 248 228.637 248 184.646C248 154.597 237.852 119.996 220.915 92.0437C204.441 65.0539 184.651 49.0001 168.001 49.0001Z" fill="#ECEFF1"/>
<path d="M283.5 90L211.157 243.973C210.235 245.936 207.917 246.806 205.931 245.936L128.5 212L283.5 90Z" fill="#C1CACF"/>
<path d="M283.5 90L52.4102 168.311C48.9986 169.467 48.7338 174.19 51.9948 175.721L108 202L283.5 90Z" fill="#D7DEE1"/>
<path d="M283.5 90L128.5 212L120.5 248.5L108 202L283.5 90Z" fill="#90A4AE"/>
<path d="M128.5 212L152 222L120.5 248.5L128.5 212Z" fill="#73848D"/>
</svg>
