<svg width="24" height="24" viewBox="0 0 24 24" fill="none" xmlns="http://www.w3.org/2000/svg">
<path fill-rule="evenodd" clip-rule="evenodd" d="M6 4H18V20H6V4ZM4 4C4 2.89543 4.89543 2 6 2H18C19.1046 2 20 2.89543 20 4V20C20 21.1046 19.1046 22 18 22H6C4.89543 22 4 21.1046 4 20V4ZM12.8744 15.6252C12.7155 15.9657 12.175 16.042 11.8821 15.7707C12.2494 15.2502 12.4072 14.9744 12.6116 14.5601C13.0728 13.6252 13.0841 12.5002 12.4994 11.2407C11.7494 9.62522 9.37439 9.50021 8.45342 11.2407C7.5882 12.7324 8.24939 14.6252 8.77564 15.5811C8.37439 15.7502 8.24939 15.8752 7.99942 16.1252C7.99152 16.532 7.99413 16.9489 7.99676 17.3682V17.3682V17.3682C7.99807 17.5786 7.99939 17.7896 7.99939 18.0002C8.87439 17.8752 9.37439 17.7502 10.2494 17.0002L10.2593 17.0081C10.8727 17.4973 11.5034 18.0002 12.2494 18.0002C13.3083 18.0002 13.5599 17.7311 13.992 17.2689L13.992 17.2689C14.07 17.1854 14.1538 17.0957 14.2494 17.0002C14.7494 17.7502 15.2494 18.0002 15.981 18.0002C15.981 17.6459 15.9849 17.3149 15.9888 16.9914C15.9963 16.3654 16.0035 15.7671 15.981 15.0807C15.6244 14.5601 15.033 14.3752 14.6244 14.3752C13.796 14.3752 13.4823 14.8041 13.1147 15.3067C13.0386 15.4107 12.9602 15.518 12.8744 15.6252ZM15.9996 6.00011V8.00011H7.99957V6.00011H15.9996ZM11.0004 12.9952C11.0004 12.3654 10.5004 12 10.5004 12C10.5004 12 10.0004 12.3654 10.0004 12.9952C10.0004 13.625 10.5004 14 10.5004 14C10.5004 14 11.0004 13.625 11.0004 12.9952Z" fill="black" fill-opacity="0.12"/>
</svg>
